<?xml version="1.0" encoding="UTF-8"?>
<svg version="1.1" xmlns="http://www.w3.org/2000/svg" width="500" height="500">
<path d="M0 0 C0.74271149 -0.0096579 1.48542297 -0.0193158 2.25064087 -0.02926636 C4.64761413 -0.05399993 7.04431922 -0.06665602 9.44140625 -0.07421875 C10.67103592 -0.07864487 10.67103592 -0.07864487 11.92550659 -0.0831604 C33.92513682 -0.10112497 55.56702017 2.91612399 76.19140625 10.86328125 C77.08923828 11.20810547 77.98707031 11.55292969 78.91210938 11.90820312 C87.66034068 15.35672743 95.85699884 19.56351324 104.00390625 24.23828125 C105.11894531 24.8621875 106.23398437 25.48609375 107.3828125 26.12890625 C124.31227802 36.01654501 139.1223568 49.84179382 152.50390625 64.05078125 C153.09187988 64.6732373 153.67985352 65.29569336 154.28564453 65.93701172 C157.59692683 69.51089644 160.3849725 73.11163464 163.00390625 77.23828125 C163.9349592 78.60808864 164.87019611 79.97505741 165.80859375 81.33984375 C171.51807451 89.72163123 176.83177807 97.9655455 181.00390625 107.23828125 C181.55304688 108.36363281 182.1021875 109.48898438 182.66796875 110.6484375 C190.80455717 127.71339214 195.39326427 146.56696978 198.00390625 165.23828125 C198.13410156 166.08132812 198.26429688 166.924375 198.3984375 167.79296875 C203.62364906 208.06193252 191.89332832 253.19743783 169.25390625 286.61328125 C168.83197998 287.23976563 168.41005371 287.86625 167.9753418 288.51171875 C162.1114895 297.12462489 156.03565001 305.64674655 148.4453125 312.83203125 C146.83217678 314.341119 146.83217678 314.341119 145.06640625 316.73828125 C142.07497992 320.36425256 138.62023086 323.24720903 135.00390625 326.23828125 C133.99070312 327.07746094 132.9775 327.91664063 131.93359375 328.78125 C103.73593641 351.73264063 69.33929493 367.33070453 33.00390625 371.23828125 C32.1221875 371.34785156 31.24046875 371.45742188 30.33203125 371.5703125 C-14.96450293 376.36867417 -63.14071803 364.1811954 -99.99609375 337.23828125 C-101.48689453 336.17287109 -101.48689453 336.17287109 -103.0078125 335.0859375 C-117.20277691 324.59248903 -129.73691173 312.60841209 -139.99609375 298.23828125 C-141.57837253 296.1957972 -143.16169089 294.15411804 -144.74609375 292.11328125 C-148.75885829 286.73013302 -151.97619144 281.22388251 -154.99609375 275.23828125 C-155.62798931 274.03337284 -156.26085995 272.82897547 -156.89453125 271.625 C-166.54679201 253.0785705 -173.13576023 234.00975089 -175.99609375 213.23828125 C-176.15859619 212.48216553 -176.32109863 211.7260498 -176.48852539 210.94702148 C-178.26975642 202.51164846 -178.35132193 194.18993976 -178.30859375 185.61328125 C-178.30677094 184.85683319 -178.30494812 184.10038513 -178.30307007 183.3210144 C-178.25836573 172.31952414 -177.74601401 161.9385758 -174.99609375 151.23828125 C-174.65069717 149.74256678 -174.30703457 148.24645114 -173.96484375 146.75 C-168.41008001 123.35031582 -159.12531113 99.12827183 -143.99609375 80.23828125 C-142.77543878 78.6147109 -141.5548393 76.99109789 -140.3359375 75.36621094 C-129.81510817 61.44300331 -117.80328068 48.93000036 -103.99609375 38.23828125 C-103.41666016 37.78775391 -102.83722656 37.33722656 -102.24023438 36.87304688 C-94.17884041 30.64649074 -86.26391435 25.53707085 -76.99609375 21.23828125 C-75.78202227 20.61413173 -74.57123934 19.98355674 -73.36328125 19.34765625 C-50.71388125 7.47238048 -25.7236492 0.28247906 0 0 Z M8.00390625 9.23828125 C5.79020574 11.02485882 5.79020574 11.02485882 5.80859375 13.40234375 C5.83179688 14.21445313 5.855 15.0265625 5.87890625 15.86328125 C5.89695313 16.68054688 5.915 17.4978125 5.93359375 18.33984375 C5.95679688 18.96632813 5.98 19.5928125 6.00390625 20.23828125 C5.0809375 20.2640625 4.15796875 20.28984375 3.20703125 20.31640625 C-8.15401392 20.81036474 -18.92694865 22.68200809 -29.99609375 25.23828125 C-30.75680176 25.40811523 -31.51750977 25.57794922 -32.30126953 25.75292969 C-57.46310924 31.49381801 -82.69956591 45.03907536 -100.99609375 63.23828125 C-102.34168423 64.39417383 -103.69541051 65.54068969 -105.05859375 66.67578125 C-110.14950537 71.12384864 -114.59455999 76.11771831 -118.99609375 81.23828125 C-119.78886719 82.15867187 -120.58164063 83.0790625 -121.3984375 84.02734375 C-144.50447438 112.41369052 -153.15377267 144.76944707 -157.99609375 180.23828125 C-160.97460938 180.18029785 -160.97460938 180.18029785 -163.953125 180.12231445 C-167.01890682 180.29634007 -168.73921314 181.19298319 -170.99609375 183.23828125 C-171.5795988 185.7811875 -171.5795988 185.7811875 -170.99609375 188.23828125 C-169.13319885 190.53888659 -169.13319885 190.53888659 -166.17578125 190.43359375 C-165.08523437 190.41039062 -163.9946875 190.3871875 -162.87109375 190.36328125 C-161.77539062 190.34523438 -160.6796875 190.3271875 -159.55078125 190.30859375 C-158.70773438 190.28539062 -157.8646875 190.2621875 -156.99609375 190.23828125 C-156.98191406 191.17542969 -156.96773437 192.11257813 -156.953125 193.078125 C-155.94680527 227.12957626 -143.82472978 263.5107708 -120.99609375 289.23828125 C-120.55555664 289.74069336 -120.11501953 290.24310547 -119.66113281 290.76074219 C-116.51827229 294.33187043 -113.28095374 297.79744949 -109.99609375 301.23828125 C-109.17238281 302.11484375 -108.34867188 302.99140625 -107.5 303.89453125 C-80.56944355 331.81613218 -39.05254212 349.99072038 -0.27246094 351.33251953 C1.81989532 351.33537683 3.91224839 351.29241318 6.00390625 351.23828125 C5.96297852 351.89860352 5.92205078 352.55892578 5.87988281 353.23925781 C5.74960804 355.62964834 5.71711418 357.8595941 6.00390625 360.23828125 C7.82662552 362.36183692 7.82662552 362.36183692 10.00390625 363.23828125 C12.08325832 362.82822455 12.08325832 362.82822455 14.00390625 361.23828125 C14.87348874 357.95473776 15.00390625 354.62276432 15.00390625 351.23828125 C15.95007813 351.20089844 16.89625 351.16351563 17.87109375 351.125 C43.36031284 349.94500409 68.76444601 344.08255756 91.00390625 331.23828125 C91.64360352 330.87589355 92.28330078 330.51350586 92.94238281 330.14013672 C134.05516445 306.7385707 161.51667251 269.65873673 174.00390625 224.23828125 C176.70478012 212.90470773 178.29308141 201.89469461 178.00390625 190.23828125 C178.84695313 190.27308594 179.69 190.30789063 180.55859375 190.34375 C182.20214844 190.38435547 182.20214844 190.38435547 183.87890625 190.42578125 C184.96945312 190.46058594 186.06 190.49539063 187.18359375 190.53125 C188.11429687 190.43457031 189.045 190.33789062 190.00390625 190.23828125 C192.31933832 187.46840049 192.31933832 187.46840049 191.69140625 184.61328125 C191.22975485 182.3032616 191.22975485 182.3032616 190.00390625 181.23828125 C187.98796043 181.00400347 185.96543225 180.82492001 183.94140625 180.67578125 C182.83667969 180.59199219 181.73195313 180.50820312 180.59375 180.421875 C179.73910156 180.36128906 178.88445312 180.30070313 178.00390625 180.23828125 C178.06578125 178.95953125 178.12765625 177.68078125 178.19140625 176.36328125 C178.01946677 135.55631098 155.19492641 95.56222596 127.25390625 67.30078125 C98.73639095 39.2236909 57.92909209 20.25229399 17.57421875 20.19921875 C15.80691406 20.21855469 15.80691406 20.21855469 14.00390625 20.23828125 C13.67390625 16.60828125 13.34390625 12.97828125 13.00390625 9.23828125 C11.35390625 9.23828125 9.70390625 9.23828125 8.00390625 9.23828125 Z " fill="#EFF0F0" transform="translate(246.99609375,65.76171875)"/>
<path d="M0 0 C7.65436994 6.6409409 12.9457741 13.31687124 16 23 C16.78761719 22.89300781 17.57523438 22.78601563 18.38671875 22.67578125 C31.21002199 21.26445912 41.45840498 23.49223378 52 31 C53.0725 31.763125 54.145 32.52625 55.25 33.3125 C64.43795239 42.29163529 68.47307075 53.05708388 69.03515625 65.73828125 C68.98923387 69.99885743 68.43266723 72.97488729 67 77 C66.76539063 77.6909375 66.53078125 78.381875 66.2890625 79.09375 C62.22853079 89.67348399 55.24967984 97.1949294 44.9921875 101.87890625 C37.00589308 104.87116017 30.38174825 105.26807659 21.84765625 105.1953125 C20.59238632 105.1924826 19.33711639 105.18965271 18.04380798 105.18673706 C14.72785653 105.17747127 11.41218699 105.15954299 8.09631348 105.1373291 C4.70420755 105.11676595 1.31207234 105.10771309 -2.08007812 105.09765625 C-8.72012917 105.07565124 -15.36004833 105.04221495 -22 105 C-22.19335938 105.60328125 -22.38671875 106.2065625 -22.5859375 106.828125 C-22.84632813 107.62734375 -23.10671875 108.4265625 -23.375 109.25 C-23.75785156 110.43335938 -23.75785156 110.43335938 -24.1484375 111.640625 C-25 114 -25 114 -26.09375 116.09375 C-27.35935367 118.75588187 -27.1319816 121.09640484 -27 124 C-24.69 124.33 -22.38 124.66 -20 125 C-18.82228403 129.13994893 -19.1930313 131.36997743 -20.87109375 135.30078125 C-21.28037109 136.27724609 -21.68964844 137.25371094 -22.11132812 138.25976562 C-22.54896484 139.26716797 -22.98660156 140.27457031 -23.4375 141.3125 C-23.87126953 142.33923828 -24.30503906 143.36597656 -24.75195312 144.42382812 C-25.82304464 146.95442896 -26.90599053 149.47924231 -28 152 C-29.65 152 -31.3 152 -33 152 C-35.55311917 147.21290155 -35.40253336 142.28910111 -35 137 C-34.67 136.34 -34.34 135.68 -34 135 C-34.66 135.33 -35.32 135.66 -36 136 C-39.5625 136.125 -39.5625 136.125 -43 136 C-44 135 -44 135 -44.21289062 132.30224609 C-43.97995299 128.68904146 -43.13630166 126.42445579 -41.59375 123.1640625 C-41.09746094 122.10058594 -40.60117188 121.03710938 -40.08984375 119.94140625 C-39.56519531 118.84699219 -39.04054688 117.75257813 -38.5 116.625 C-37.97535156 115.50738281 -37.45070313 114.38976562 -36.91015625 113.23828125 C-35.61691201 110.48719804 -34.31330212 107.74154993 -33 105 C-34.18817825 105.00999275 -34.18817825 105.00999275 -35.40036011 105.02018738 C-42.90246014 105.08055219 -50.40444071 105.12610239 -57.90672112 105.15543652 C-61.76279014 105.17102498 -65.61865678 105.19213675 -69.47460938 105.22631836 C-73.20289191 105.25915757 -76.93098101 105.27690416 -80.65939713 105.28463173 C-82.07461716 105.29013155 -83.48982783 105.30087012 -84.90496445 105.31719017 C-98.31505369 105.46554847 -109.77194838 103.44366538 -120.0078125 94.18359375 C-124.49531159 89.37555902 -127.38658965 84.00007694 -130 78 C-130.36738281 77.19820313 -130.73476562 76.39640625 -131.11328125 75.5703125 C-134.40103781 66.04016354 -131.59547132 55.03697568 -128 46 C-122.87809308 35.81325476 -112.8458495 27.48111838 -102.1328125 23.57421875 C-94.55412888 22.18510841 -86.67014759 22.70971785 -79 23 C-78.70867187 22.3709375 -78.41734375 21.741875 -78.1171875 21.09375 C-71.6339423 7.55640783 -62.9053068 -1.86991404 -49 -8 C-32.67769593 -13.55596344 -13.44105337 -10.56082765 0 0 Z M-57.8828125 15.578125 C-64.75635648 23.44085059 -67.17920285 32.08787463 -67.0625 42.25 C-67.05798828 42.99507812 -67.05347656 43.74015625 -67.04882812 44.5078125 C-67.03709246 46.3385764 -67.0191585 48.16929873 -67 50 C-70.28696233 50.79953138 -71.71023192 51.09658936 -75 50 C-80.88724364 49.42281925 -85.17943541 50.68655445 -90 54 C-90.66 54.99 -91.32 55.98 -92 57 C-95.125 57.1875 -95.125 57.1875 -98 57 C-98.33 56.01 -98.66 55.02 -99 54 C-98.04906703 52.30485863 -97.04892238 50.63631892 -96 49 C-96 48.34 -96 47.68 -96 47 C-95.484375 46.7525 -94.96875 46.505 -94.4375 46.25 C-92.42004002 45.21540514 -90.46332273 44.13154944 -88.5 43 C-86.03684185 41.58037337 -83.56447147 40.23094631 -81 39 C-86.79913476 36.10043262 -92.41297797 36.36233178 -98.5 38.0625 C-106.37948993 40.9833454 -111.21614166 46.51438129 -115.08984375 53.7890625 C-117.9612356 60.76420321 -117.60809634 67.74935459 -115.02734375 74.73046875 C-111.77544433 81.91432261 -107.66251391 85.73326666 -100.5625 89.08984375 C-93.95671608 91.43610542 -87.19720009 91.15412395 -80.27832031 91.16113281 C-79.10357147 91.16609772 -77.92882263 91.17106262 -76.71847534 91.17617798 C-72.83835256 91.1907636 -68.95827067 91.19759557 -65.078125 91.203125 C-63.73672206 91.2058629 -62.39531937 91.20871945 -61.05391693 91.21169281 C-54.75026899 91.22535133 -48.44663394 91.235026 -42.14297223 91.2388947 C-34.89050533 91.24337144 -27.63822728 91.26090827 -20.38581777 91.2898953 C-14.76350249 91.31157945 -9.14124008 91.32160256 -3.51888347 91.32293582 C-0.16841367 91.32397906 3.18173745 91.33125214 6.53218842 91.34775543 C10.27518384 91.36487665 14.01772311 91.36292052 17.76074219 91.35644531 C18.85615326 91.3656601 19.95156433 91.37487488 21.08016968 91.3843689 C31.36641126 91.32883815 40.5000601 89.46660683 48 82 C53.80979397 74.36922583 54.93390239 67.52363249 54 58 C51.39844064 49.18630592 45.53961485 43.61900857 37.75 39.125 C29.56944665 35.77840999 22.09973516 36.70776071 14 40 C12.30140333 41.29241051 10.62390477 42.61490475 9 44 C7.68 44 6.36 44 5 44 C4.94392578 43.09121094 4.94392578 43.09121094 4.88671875 42.1640625 C4.03302625 31.28366785 1.53608618 22.21116519 -6 14 C-22.32438739 0.32350537 -42.56762098 1.48178955 -57.8828125 15.578125 Z " fill="#EAEBEC" transform="translate(289,143)"/>
<path d="M0 0 C8.90913504 -0.37468325 15.80369419 1.45369788 22.6328125 7.26953125 C27.06556656 11.02351985 30.65588025 13.23826945 36.5703125 13.20703125 C42.62487398 12.26359787 47.07794547 9.45545943 51.74609375 5.609375 C58.63802314 0.31129652 67.37554284 0.60939113 75.67578125 1.41015625 C80.95924869 2.38037382 84.25719482 5.09235137 88.34765625 8.453125 C94.13675444 13.02132375 99.12177041 14.942176 106.5703125 14.20703125 C107.39660156 14.12839844 108.22289062 14.04976563 109.07421875 13.96875 C111.2439038 13.74125564 113.40692377 13.48747053 115.5703125 13.20703125 C117.1953125 15.33203125 117.1953125 15.33203125 118.5703125 18.20703125 C117.94017421 22.06662828 117.00029909 23.78836009 114.1953125 26.51953125 C108.55557325 30.14507791 102.08023793 29.77765434 95.5703125 29.20703125 C89.29633081 27.63404157 84.3254654 24.65275257 79.359375 20.57421875 C75.23481993 17.42226619 71.70413228 16.54853069 66.5625 16.6171875 C61.43452599 17.62805444 57.23808269 20.42363037 52.8671875 23.1640625 C45.48205363 27.74039546 38.92251162 30.25892274 30.140625 28.8046875 C25.17293704 27.35219742 21.49322898 24.89975387 17.47265625 21.69921875 C12.55898604 17.84496408 7.94554538 15.43072363 1.5703125 15.20703125 C-5.02282067 16.35909452 -9.2821315 18.75551608 -14.6171875 22.70703125 C-21.60003488 27.79143753 -26.28964194 30.56150006 -35.1796875 30.39453125 C-36.25464478 30.38486328 -36.25464478 30.38486328 -37.35131836 30.375 C-41.63546914 30.31280523 -45.79605159 30.02256802 -50.03125 29.4140625 C-53.32203929 29.13000414 -56.56657575 29.29900456 -59.8671875 29.39453125 C-69.20171626 29.43179484 -75.01815354 27.08610066 -82.4296875 21.58203125 C-87.2251171 18.11283765 -91.42661655 16.11323327 -97.4296875 16.20703125 C-104.21435231 17.6699746 -109.57988198 21.44996594 -115.0078125 25.62109375 C-121.86954819 30.1144239 -129.50223948 29.95643693 -137.4296875 29.20703125 C-141.89703445 27.8534918 -144.7874669 26.17036215 -147.4296875 22.20703125 C-147.6796875 18.64453125 -147.6796875 18.64453125 -147.4296875 15.20703125 C-145.4296875 13.20703125 -145.4296875 13.20703125 -142.4296875 13.01953125 C-139.4296875 13.20703125 -139.4296875 13.20703125 -137.4296875 14.20703125 C-128.72668513 15.37858926 -122.22737173 12.8141137 -115.3046875 7.609375 C-114.6446875 7.08472656 -113.9846875 6.56007813 -113.3046875 6.01953125 C-105.94830326 0.307688 -97.20611964 0.46078117 -88.23046875 1.44921875 C-82.56832361 2.53937636 -78.82653176 5.64029659 -74.4296875 9.20703125 C-69.41964828 12.77186685 -66.14124767 14.36421791 -60.0234375 14.26953125 C-59.19714844 14.26179688 -58.37085938 14.2540625 -57.51953125 14.24609375 C-56.66488281 14.23320312 -55.81023437 14.2203125 -54.9296875 14.20703125 C-53.23183614 14.18142263 -51.53390759 14.16042489 -49.8359375 14.14453125 C-49.08634766 14.13292969 -48.33675781 14.12132812 -47.56445312 14.109375 C-45.38706965 14.20898083 -43.52453877 14.62595743 -41.4296875 15.20703125 C-32.77282342 16.38598161 -26.5371292 13.24549236 -19.66796875 8.1640625 C-18.28158203 7.10251953 -18.28158203 7.10251953 -16.8671875 6.01953125 C-11.20141716 1.79407612 -6.90667434 0.58851084 0 0 Z " fill="#E9EAEA" transform="translate(272.4296875,299.79296875)"/>
<path d="M0 0 C0.92554688 0.70382812 1.85109375 1.40765625 2.8046875 2.1328125 C9.94089015 7.44605996 17.71746341 7.98216672 26.3125 9 C27.3025 9.15984375 28.2925 9.3196875 29.3125 9.484375 C40.19539859 11.03024128 47.03699296 6.35196386 55.6340332 0.22924805 C63.79646802 -5.53864726 70.2885602 -6.9507802 80.3125 -6 C86.74715006 -4.83214536 91.13752336 -1.01108671 96.015625 3.16015625 C100.77638758 6.97362423 104.41408961 7.49897232 110.44140625 7.37890625 C115.13673635 6.75925044 118.45938674 4.63958827 122.3125 2 C123.09882813 1.47277344 123.88515625 0.94554687 124.6953125 0.40234375 C126.19741091 -0.60649132 127.69081937 -1.62848711 129.171875 -2.66796875 C136.85520143 -7.44901677 144.63690217 -7.46071627 153.28125 -5.8671875 C158.19933511 -4.46020954 162.09015403 -1.80741088 166.3125 1 C168.28788233 2.07065722 170.2814507 3.03792402 172.3125 4 C170.86825365 7.23861303 169.05477753 9.61969163 166.6875 12.25 C166.05585938 12.95640625 165.42421875 13.6628125 164.7734375 14.390625 C164.29132813 14.92171875 163.80921875 15.4528125 163.3125 16 C162.40628906 15.4946875 161.50007812 14.989375 160.56640625 14.46875 C150.98538024 9.00404591 150.98538024 9.00404591 140.3125 9 C133.85949733 11.35308537 128.63104572 15.03815362 123.41796875 19.44921875 C118.02964384 23.41798496 111.63904726 24.34097132 105.08203125 23.82421875 C97.14663968 22.43376961 90.48317279 18.1538732 84.6875 12.6875 C81.70961118 10.04358002 79.38006137 9.01520245 75.38671875 8.85546875 C66.93969319 9.44405622 61.17517764 13.98382632 54.71655273 19.06347656 C44.91011327 26.68539632 33.95052758 25.79798782 22.13671875 24.46484375 C20.38167709 24.23507461 18.6277137 23.99690031 16.875 23.75 C16.05950684 23.64083252 15.24401367 23.53166504 14.40380859 23.41918945 C8.55705078 22.51213903 3.59933276 20.63432433 -1.6875 18 C-1.6875 17.34 -1.6875 16.68 -1.6875 16 C-2.27273437 15.72285156 -2.85796875 15.44570313 -3.4609375 15.16015625 C-5.57013882 14.06115135 -7.37939437 12.81535189 -9.3125 11.4375 C-13.99187597 8.53127019 -18.19126809 7.57846009 -23.6875 8 C-29.05339845 9.33038805 -33.87244935 11.40283734 -38.5625 14.3125 C-41.6875 16 -41.6875 16 -44.14453125 15.84765625 C-47.21576986 14.82391005 -48.429561 13.58787515 -50.5 11.125 C-51.10457031 10.42632812 -51.70914063 9.72765625 -52.33203125 9.0078125 C-53.6875 7 -53.6875 7 -53.6875 4 C-52.83091797 3.67128906 -52.83091797 3.67128906 -51.95703125 3.3359375 C-45.72937381 0.90031949 -39.6937237 -1.831354 -33.66796875 -4.73046875 C-22.09061477 -9.66184495 -9.86530164 -7.33159029 0 0 Z " fill="#E9EAEA" transform="translate(198.6875,339)"/>
<path d="M0 0 C6.55421944 4.49799374 10.81696115 5.12397123 18.55078125 4.78515625 C23.52901479 4.67714724 23.52901479 4.67714724 25.9375 6.328125 C27.66384689 9.04458261 27.50219471 10.86128304 27 14 C24.827365 16.57285724 23.02006162 18.48996919 20 20 C7.59796574 20.83645367 0.60586464 18.22507564 -9.64453125 11.5234375 C-14.88370994 8.13491397 -19.87417672 8.45857623 -26 9 C-30.98663405 10.45736136 -34.94089773 13.64258187 -39.125 16.625 C-46.45338916 21.83728895 -54.05522725 23.78140054 -63.03125 22.6015625 C-71.19001091 20.85031331 -77.26919671 17.97207751 -82.0625 11 C-83.17154705 7.45104945 -83.17453559 5.52360678 -82 2 C-80.3125 0 -80.3125 0 -78 -1 C-74.49630555 -0.34305729 -72.5540829 0.42804346 -70.0625 3 C-66.72360438 6.23771696 -63.20488473 6.96762812 -58.60546875 7.03515625 C-49.60342207 6.46820707 -43.78363572 2.72205825 -36.80859375 -2.67578125 C-25.87226878 -10.68315526 -10.1389662 -7.60422465 0 0 Z " fill="#E6E8E9" transform="translate(197,275)"/>
<path d="M0 0 C2.09106558 1.48149296 4.09774964 2.97683995 6.05078125 4.63671875 C10.85564055 7.79471478 17.4100922 7.28581797 22.875 6.375 C25.65857772 5.1973325 27.40380107 4.11997943 29.75 2.3125 C32.79140094 0.0075818 32.79140094 0.0075818 35.875 -0.0625 C38.72308297 1.28242807 39.76806942 2.13536878 41.125 5 C41.33703137 8.74588762 40.97363848 10.99930524 38.51171875 13.90234375 C31.23608712 20.5846229 23.91018592 22.95841989 14.125 23 C5.5318356 22.46473555 -0.94412096 17.55889806 -7.7421875 12.65234375 C-12.85366906 9.24061324 -17.96661588 9.03468654 -23.875 10 C-28.58638443 11.82472667 -32.47841528 14.68471675 -36.5 17.6875 C-41.96862891 21.6852563 -48.18622098 22.81539401 -54.875 22 C-59.18917806 20.99414428 -62.14345125 19.69497132 -65.375 16.625 C-67.04303571 13.7059375 -67.48224947 12.29649712 -66.875 9 C-65.859375 7.34375 -65.859375 7.34375 -63.875 6 C-61.08510513 5.91235932 -58.4615848 5.96253356 -55.6875 6.125 C-48.67253791 6.33969122 -44.28092735 5.80221973 -38.875 1 C-26.96270281 -8.00040232 -12.34117944 -8.15979299 0 0 Z " fill="#E6E8E8" transform="translate(359.875,274)"/>
<path d="M0 0 C2.53867622 1.00210904 3.85812145 1.66218217 5.375 3.9375 C4.92675413 7.48707475 4.37160627 7.94033264 1.4453125 10.3828125 C0.14096988 11.29168413 -1.1751185 12.18383834 -2.5 13.0625 C-3.21397949 13.54041992 -3.92795898 14.01833984 -4.66357422 14.51074219 C-25.53433168 28.20195908 -49.46919213 38.04725402 -74.625 39.9375 C-75.285 39.6075 -75.945 39.2775 -76.625 38.9375 C-77.07421875 37.125 -77.07421875 37.125 -77.3125 34.9375 C-77.39886719 34.215625 -77.48523438 33.49375 -77.57421875 32.75 C-77.59097656 32.151875 -77.60773438 31.55375 -77.625 30.9375 C-76.14438897 29.45688897 -74.69377358 29.53518701 -72.63671875 29.2109375 C-49.26347461 25.29935964 -23.56391478 17.12269305 -4.95703125 1.73046875 C-2.625 -0.0625 -2.625 -0.0625 0 0 Z " fill="#DFE1E1" transform="translate(348.625,355.0625)"/>
<path d="M0 0 C2.2711919 1.29044994 4.04294407 2.56741667 6.0625 4.1875 C12.34075806 9.03511922 19.60073134 12.21402127 26.75 15.5625 C27.92175781 16.11292969 29.09351563 16.66335938 30.30078125 17.23046875 C42.68727731 22.78796237 55.46818414 26.41900225 68.83740234 28.6628418 C73.66130409 29.47380409 73.66130409 29.47380409 74.75 30.5625 C74.03 37.2825 74.03 37.2825 72.75 38.5625 C61.69767512 38.82836349 51.24513848 35.6277468 40.75 32.5625 C39.65429688 32.253125 38.55859375 31.94375 37.4296875 31.625 C21.19324482 26.67000932 4.77279051 17.41897546 -8.25 6.5625 C-6.64605633 2.6863028 -4.64286454 -0.90277922 0 0 Z " fill="#DFE1E2" transform="translate(169.25,355.4375)"/>
<path d="M0 0 C5.77878528 3.89979375 9.22726495 8.42043446 11.75 14.9375 C12.80808081 23.66666667 12.80808081 23.66666667 10.75 27.0625 C9 28 9 28 6.9375 27.8125 C5 27 5 27 3 25 C2.71954895 23.42494158 2.49788963 21.83905396 2.3125 20.25 C1.41625781 15.21501336 -0.3076008 13.07715449 -4.34375 10.05859375 C-8.70553565 7.27075433 -12.93945074 7.34249798 -18 8 C-22.08166925 9.64770903 -25.06543246 11.87851895 -27.875 15.25 C-29.43682337 19.06779045 -30.25053141 22.95286959 -31 27 C-32.65 27.33 -34.3 27.66 -36 28 C-37.97058291 26.18706372 -38.94172436 24.74712362 -39.15234375 22.046875 C-38.62432084 14.30253898 -35.37157011 7.8928453 -29.6875 2.625 C-20.9952033 -4.1190233 -9.76162389 -5.39832007 0 0 Z " fill="#DCDEDF" transform="translate(271,164)"/>
<path d="M0 0 C11.54594532 4.28664761 20.2398715 25.05750773 25.17822266 35.75 C29.13664597 44.51553259 32.7829845 53.17259653 34.09375 62.77734375 C30.87735346 64.52299486 28.77361596 64.98178075 25.09375 64.77734375 C23.53689461 60.68304644 22.01636508 56.58971547 20.62109375 52.4375 C15.35273013 37.01802132 8.12464792 23.57983197 -2.59082031 11.2409668 C-5.93241694 7.28498243 -5.93241694 7.28498243 -5.7890625 4.50390625 C-3.28969023 -0.3842466 -3.28969023 -0.3842466 0 0 Z " fill="#DEE0E1" transform="translate(367.90625,159.22265625)"/>
<path d="M0 0 C4.03559479 2.21782253 6.54031906 4.62095717 8 9 C8.57 17.835 8.57 17.835 5 22 C0.51071692 25.02765603 -3.70968169 25.9609161 -9 25 C-14.32522649 22.1866728 -17.16712335 19.49862995 -19.0625 13.8125 C-18.97364811 8.39253473 -16.44517637 5.06443592 -13 1 C-9.00247674 -0.99876163 -4.33428575 -0.64388289 0 0 Z M-5 8 C-6.32 9.32 -7.64 10.64 -9 12 C-8.34 13.32 -7.68 14.64 -7 16 C-5.35 15.67 -3.7 15.34 -2 15 C-1.67 13.68 -1.34 12.36 -1 11 C-2.32 10.01 -3.64 9.02 -5 8 Z " fill="#E0E3E4" transform="translate(119,239)"/>
<path d="M0 0 C3.45624534 1.64647908 5.41926482 4.06577384 7.4375 7.3125 C8.50607857 12.41793096 7.98448509 16.49045619 5.125 20.875 C2.07758795 23.92241205 0.02267425 25.3003029 -4.25 25.375 C-9.22698793 25.26133307 -12.00203234 23.93728237 -16 21 C-18.60071375 16.84233721 -18.68598176 12.76881299 -18 8 C-13.72901951 -0.10013542 -8.64078865 -1.20971041 0 0 Z M-7.8125 9.125 C-9.28399746 11.01353208 -9.28399746 11.01353208 -8.6875 13.6875 C-8.460625 14.450625 -8.23375 15.21375 -8 16 C-6.16299211 16.77242269 -6.16299211 16.77242269 -4 17 C-2.06345052 15.98029682 -2.06345052 15.98029682 -1 14 C-1.23043864 11.34533951 -1.23043864 11.34533951 -2 9 C-4.99014998 7.85732642 -4.99014998 7.85732642 -7.8125 9.125 Z " fill="#E0E2E4" transform="translate(406,239)"/>
<path d="M0 0 C1.2065625 0.0309375 1.2065625 0.0309375 2.4375 0.0625 C3.55273438 1.74829102 3.55273438 1.74829102 4.4375 4.0625 C3.80664062 6.45678711 3.80664062 6.45678711 2.59375 9.08984375 C2.17222656 10.04697266 1.75070312 11.00410156 1.31640625 11.99023438 C0.39861432 13.99351675 -0.52065224 15.99612421 -1.44140625 17.99804688 C-2.07369141 19.43567383 -2.07369141 19.43567383 -2.71875 20.90234375 C-3.31913086 22.20739868 -3.31913086 22.20739868 -3.93164062 23.53881836 C-4.73169281 26.7393367 -3.99337658 28.1552441 -2.5625 31.0625 C-1.93477587 34.98212627 -1.92124152 38.13623775 -4.25 41.5 C-6.85782641 43.26204487 -8.41992887 43.90920385 -11.5625 44.0625 C-14.52684289 43.28612448 -16.17117152 42.44033439 -18.375 40.3125 C-20.06943852 37.1019849 -20.24490272 35.67923444 -19.5625 32.0625 C-18.53322221 30.69490462 -17.44672967 29.36977017 -16.328125 28.07421875 C-12.24286237 22.96790001 -9.98334908 17.64164967 -7.6875 11.5625 C-6.92104252 9.59305959 -6.15290762 7.62427086 -5.3828125 5.65625 C-5.05555176 4.79708984 -4.72829102 3.93792969 -4.39111328 3.05273438 C-3.15214811 0.07688166 -3.15214811 0.07688166 0 0 Z " fill="#DDDFE0" transform="translate(268.5625,363.9375)"/>
<path d="M0 0 C2.1382143 1.14038096 3.47286109 2.00748681 4.875 4 C4.5988494 8.31978432 1.47071001 11.1580849 -1.1875 14.3125 C-5.81975841 19.95693106 -9.41320033 25.70975 -12.57446289 32.28833008 C-13.36033107 33.89203322 -14.23623605 35.45095152 -15.125 37 C-18.125 38 -18.125 38 -21.3125 36.5625 C-22.240625 36.046875 -23.16875 35.53125 -24.125 35 C-23.00426819 27.2669505 -8.99497444 0 0 0 Z " fill="#DFE1E2" transform="translate(148.125,159)"/>
<path d="M0 0 C12.32462182 1.46354884 24.25368187 3.93954435 36 8 C35.25 14.625 35.25 14.625 33 18 C32.41734375 17.81244141 31.8346875 17.62488281 31.234375 17.43164062 C23.54296855 15.03109946 15.76818946 13.42038526 7.86328125 11.89453125 C6.87714844 11.69214844 5.89101563 11.48976563 4.875 11.28125 C3.54082031 11.01924805 3.54082031 11.01924805 2.1796875 10.75195312 C0 10 0 10 -2 7 C-1.67873872 4.36565746 -1.18644952 2.37289903 0 0 Z " fill="#D7DADB" transform="translate(273,109)"/>
<path d="M0 0 C1.134375 0.020625 2.26875 0.04125 3.4375 0.0625 C4.61021259 2.54589136 5.4375 4.48317875 5.4375 7.25 C3.85278674 10.12229279 1.53599308 10.16684184 -1.5625 11.0625 C-5.33569983 11.96996164 -9.13296683 12.7605524 -12.9296875 13.5625 C-16.3310362 14.29545056 -19.57454998 15.06659244 -22.875 16.1875 C-25.5625 17.0625 -25.5625 17.0625 -29.5625 17.0625 C-31.125 14.25 -31.125 14.25 -32.5625 11.0625 C-32.2325 10.0725 -31.9025 9.0825 -31.5625 8.0625 C-23.93255853 4.75254134 -15.39629643 3.27863388 -7.265625 1.67578125 C-3.61619355 0.8478033 -4.05937697 0.07121714 0 0 Z " fill="#D8DADB" transform="translate(238.5625,108.9375)"/>
<path d="M0 0 C3.68067472 1.15873093 5.16802599 1.92180622 7.375 5.0625 C8.63272285 8.91951673 8.56798287 10.575448 7.0625 14.375 C5.375 17.0625 5.375 17.0625 3.375 18.0625 C0.31594019 18.47588646 -2.57032102 18.52911171 -5.625 18.0625 C-8.3399409 15.94352174 -9.30292702 14.47620088 -10.06640625 11.125 C-10.26452224 8.89935653 -10.19501086 7.22506027 -9.625 5.0625 C-6.49597232 1.32293034 -4.91526448 0.08474594 0 0 Z " fill="#E8E9EB" transform="translate(258.625,96.9375)"/>
<path d="M0 0 C2.64 1.32 5.28 2.64 8 4 C6.02 10.27 4.04 16.54 2 23 C-3.625 24.125 -3.625 24.125 -7 23 C-7.35156451 17.24032608 -6.29560641 13.29640432 -4.0625 8.125 C-3.78470703 7.44953125 -3.50691406 6.7740625 -3.22070312 6.078125 C-1.1796875 1.1796875 -1.1796875 1.1796875 0 0 Z " fill="#DADCDE" transform="translate(121,200)"/>
<path d="M0 0 C2 2 2 2 2.3125 5.6875 C2.20839924 10.07574732 1.05054044 13.13551995 -1 17 C-3.79870027 18.39935013 -5.90498792 18.25265405 -9 18 C-10.875 16.9375 -10.875 16.9375 -12 15 C-12.8870897 9.34480319 -11.30778343 6.17377724 -8.2890625 1.6015625 C-5.71140734 -1.60097875 -3.70850846 -1.01983983 0 0 Z " fill="#DDDEE0" transform="translate(238,256)"/>
<path d="M0 0 C0.66 0.66 1.32 1.32 2 2 C1.66204555 7.85787712 0.20920556 12.79079444 -4 17 C-7.5 16.8125 -7.5 16.8125 -11 16 C-13 13 -13 13 -12.875 9.75 C-11.85333678 5.37144335 -10.52200166 2.70882598 -8 -1 C-4.34765818 -2.21744727 -3.37046678 -1.64202228 0 0 Z " fill="#DADCDD" transform="translate(290,257)"/>
<path d="M0 0 C4.91511194 1.34048507 4.91511194 1.34048507 6.4375 3.9375 C6.85918789 7.24072178 6.77440996 9.24496287 5.3125 12.25 C2.68025308 14.61902223 0.96147438 14.9375 -2.5625 14.9375 C-5.4375 13.4375 -5.4375 13.4375 -7.5625 10.9375 C-8.20383592 6.94696541 -8.15394521 4.88381234 -6 1.4375 C-3.5625 -0.0625 -3.5625 -0.0625 0 0 Z " fill="#DBDEE0" transform="translate(372.5625,204.0625)"/>
<path d="M0 0 C2.375 1.5625 2.375 1.5625 4 4 C4.5625 7.5 4.5625 7.5 4 11 C1.875 13.5 1.875 13.5 -1 15 C-4.52397438 15 -6.24275308 14.68152223 -8.875 12.3125 C-10.35810604 9.26389315 -10.48891657 7.35257076 -10 4 C-7.21921757 -0.06422047 -4.81255755 -0.80209293 0 0 Z " fill="#DDDEE0" transform="translate(146,204)"/>
<path d="M0 0 C2.3125 1.625 2.3125 1.625 4 4 C4.48288863 7.31123632 4.29618989 9.296549 3 12.375 C0.28967961 14.57713531 -1.70883166 14.51345108 -5.125 14.3125 C-7 14 -7 14 -9 12.9375 C-10.62897258 9.78136563 -10.48820905 7.47848951 -10 4 C-6.98538624 0.64085896 -4.52721473 -0.92865943 0 0 Z " fill="#DADCDD" transform="translate(155,247)"/>
<path d="M0 0 C1.875 1.125 1.875 1.125 3 3 C3.36248449 6.38318857 3.58433618 8.86784865 2 11.9375 C-1.24517189 13.66149757 -4.41991613 13.65498416 -8 13 C-10.0625 11.4375 -10.0625 11.4375 -11 9 C-10.93375803 5.22420799 -10.78061285 2.92517078 -8.3125 0 C-5.12832007 -1.37694267 -3.29075199 -0.980224 0 0 Z " fill="#DADCDE" transform="translate(367,248)"/>
<path d="M0 0 C2 2 2 2 2.375 5.4375 C2 9 2 9 0.375 11 C-2.83596428 12.35198496 -4.69946166 12.00451167 -8 11 C-10.31361802 7.52957297 -10.51020728 6.08165827 -10 2 C-6.94783427 -1.63912068 -4.35383535 -1.23043173 0 0 Z " fill="#CFD3D4" transform="translate(358,145)"/>
<path d="M0 0 C6.46153846 0.46153846 6.46153846 0.46153846 9 3 C9.47171648 6.61649298 9.41791658 8.37312512 7.375 11.4375 C5 13 5 13 1.875 12.9375 C-1 12 -1 12 -3 9 C-2.54716981 2.54716981 -2.54716981 2.54716981 0 0 Z " fill="#CFD2D4" transform="translate(158,144)"/>
<path d="M0 0 C1.9375 1.625 1.9375 1.625 3 4 C2.77962372 7.67293796 2.63033454 9.36966546 0 12 C-3.10347254 12.33015665 -5.15781176 12.50531294 -7.875 10.875 C-9.52854531 8.11909116 -9.39365568 6.14924548 -9 3 C-6.79848461 -0.66919231 -4.00961374 -0.58473534 0 0 Z " fill="#D3D5D6" transform="translate(198,122)"/>
<path d="M0 0 C1.875 1.125 1.875 1.125 3 3 C3.4375 6 3.4375 6 3 9 C1.375 10.9375 1.375 10.9375 -1 12 C-4.125 11.875 -4.125 11.875 -7 11 C-9.15502531 7.76746204 -9.46856135 6.74849077 -9 3 C-6.73529086 -0.64869805 -4.03159541 -0.50394943 0 0 Z " fill="#D3D4D6" transform="translate(341,132)"/>
<path d="M0 0 C2.14373717 5.24024641 2.14373717 5.24024641 1.5625 8.3125 C0 10 0 10 -3.4375 10.9375 C-7 11 -7 11 -8.9375 9.9375 C-10.47555213 7.13281671 -10.39310741 5.14485925 -10 2 C-7.64463991 -2.2950684 -4.23605512 -0.87918125 0 0 Z " fill="#D5D7D8" transform="translate(325,123)"/>
<path d="M0 0 C1.41441874 2.82883747 1.31900332 4.87376745 1 8 C-0.6875 9.9375 -0.6875 9.9375 -3 11 C-6.37036311 10.75925978 -7.58798021 10.41201979 -10 8 C-10.32954432 4.90228335 -10.45334601 2.82668977 -8.9375 0.0625 C-5.81857551 -1.64787795 -3.34442199 -0.80513863 0 0 Z " fill="#D7D9DB" transform="translate(182,133)"/>
<path d="M0 0 C2 2 2 2 2.1953125 5.0390625 C2.17210937 6.22242188 2.14890625 7.40578125 2.125 8.625 C2.10695313 9.81351563 2.08890625 11.00203125 2.0703125 12.2265625 C2.04710937 13.14179688 2.02390625 14.05703125 2 15 C7.94 14.505 7.94 14.505 14 14 C14.33 14.66 14.66 15.32 15 16 C13 18 13 18 10.6875 18.01171875 C9.800625 17.90472656 8.91375 17.79773438 8 17.6875 C7.113125 17.58824219 6.22625 17.48898438 5.3125 17.38671875 C3 17 3 17 1 16 C0.68758545 13.28553021 0.48663408 10.66090639 0.375 7.9375 C0.33632813 7.17888672 0.29765625 6.42027344 0.2578125 5.63867188 C0.16326438 3.75952805 0.08053244 1.87979664 0 0 Z " fill="#959DA0" transform="translate(424,230)"/>
<path d="M0 0 C0.33 0 0.66 0 1 0 C1.33 1.65 1.66 3.3 2 5 C4.31 5.33 6.62 5.66 9 6 C9.33 7.65 9.66 9.3 10 11 C9.67 10.34 9.34 9.68 9 9 C6.65092125 8.31068656 6.65092125 8.31068656 3.9375 7.875 C2.55884766 7.62363281 2.55884766 7.62363281 1.15234375 7.3671875 C0.44207031 7.24601562 -0.26820313 7.12484375 -1 7 C-0.67 4.69 -0.34 2.38 0 0 Z " fill="#707476" transform="translate(260,262)"/>
<path d="M0 0 C0.33 0.66 0.66 1.32 1 2 C0.0625 4.625 0.0625 4.625 -1 7 C-1.66 7 -2.32 7 -3 7 C-3.28875 7.639375 -3.5775 8.27875 -3.875 8.9375 C-5 11 -5 11 -7 12 C-6.38801624 8.56049636 -5.07941153 6.48435515 -2.9375 3.75 C-2.38964844 3.04359375 -1.84179688 2.3371875 -1.27734375 1.609375 C-0.85582031 1.07828125 -0.43429687 0.5471875 0 0 Z " fill="#BCBFC1" transform="translate(399,340)"/>
<path d="M0 0 C1.0725 0.309375 2.145 0.61875 3.25 0.9375 C3.58 1.5975 3.91 2.2575 4.25 2.9375 C3.64671875 2.91429688 3.0434375 2.89109375 2.421875 2.8671875 C1.62265625 2.84914063 0.8234375 2.83109375 0 2.8125 C-1.18335938 2.77769531 -1.18335938 2.77769531 -2.390625 2.7421875 C-4.95731941 2.9546622 -6.5416067 3.65095895 -8.75 4.9375 C-4.71269555 -0.07854493 -4.71269555 -0.07854493 0 0 Z " fill="#A8ADAE" transform="translate(258.75,97.0625)"/>
<path d="M0 0 C0 0.66 0 1.32 0 2 C-0.99 2 -1.98 2 -3 2 C-3 2.66 -3 3.32 -3 4 C-5 5.625 -5 5.625 -7 7 C-8.32 6.34 -9.64 5.68 -11 5 C-9.54462432 4.16151196 -8.08559627 3.32936066 -6.625 2.5 C-5.81289062 2.0359375 -5.00078125 1.571875 -4.1640625 1.09375 C-2 0 -2 0 0 0 Z " fill="#B7BFBF" transform="translate(168,89)"/>
<path d="M0 0 C0 0.66 0 1.32 0 2 C-0.66 2 -1.32 2 -2 2 C-2.33 2.66 -2.66 3.32 -3 4 C-3.99 4.495 -3.99 4.495 -5 5 C-7.125 4.0625 -7.125 4.0625 -9 3 C-3.375 0 -3.375 0 0 0 Z M-7 5 C-5 6 -5 6 -5 6 Z " fill="#C4C9C9" transform="translate(166,335)"/>
<path d="M0 0 C1.50433594 0.01353516 1.50433594 0.01353516 3.0390625 0.02734375 C3.80992188 0.03894531 4.58078125 0.05054688 5.375 0.0625 C5.375 0.3925 5.375 0.7225 5.375 1.0625 C2.075 1.0625 -1.225 1.0625 -4.625 1.0625 C-4.625 1.7225 -4.625 2.3825 -4.625 3.0625 C-6.275 3.7225 -7.925 4.3825 -9.625 5.0625 C-7.31621143 -0.04981756 -5.45179037 -0.06339291 0 0 Z " fill="#999DA0" transform="translate(113.625,238.9375)"/>
<path d="M0 0 C1.65 0 3.3 0 5 0 C4.25 1.9375 4.25 1.9375 3 4 C0.875 4.75 0.875 4.75 -1 5 C-0.67 3.35 -0.34 1.7 0 0 Z " fill="#C8CDCF" transform="translate(158,144)"/>
<path d="M0 0 C0.99 0.33 1.98 0.66 3 1 C2.34 1 1.68 1 1 1 C0.71125 1.598125 0.4225 2.19625 0.125 2.8125 C-1 5 -1 5 -3 8 C-3.75 6.25 -3.75 6.25 -4 4 C-2.0625 1.75 -2.0625 1.75 0 0 Z " fill="#95999B" transform="translate(366,159)"/>
<path d="M0 0 C0.66 0.33 1.32 0.66 2 1 C1.319375 1.61875 1.319375 1.61875 0.625 2.25 C-1.05950374 4.06408095 -1.99265971 5.75285627 -3 8 C-3.99 7.34 -4.98 6.68 -6 6 C-4.02 4.02 -2.04 2.04 0 0 Z " fill="#B0B2B5" transform="translate(368,375)"/>
<path d="M0 0 C1 3 1 3 0.3125 5.0625 C-1.21259665 7.31383315 -2.50584728 8.00233891 -5 9 C-3.7508258 5.54074837 -2.32472205 2.85306797 0 0 Z " fill="#B7BABC" transform="translate(133,176)"/>
<path d="M0 0 C1 3 1 3 0 6 C-2.5625 7.1875 -2.5625 7.1875 -5 8 C-1.125 1.125 -1.125 1.125 0 0 Z " fill="#BCBEC0" transform="translate(106,142)"/>
<path d="M0 0 C0.66 0.33 1.32 0.66 2 1 C1.34 1.66 0.68 2.32 0 3 C-0.64767793 5.57061311 -0.64767793 5.57061311 -1 8 C-1.99 7.34 -2.98 6.68 -4 6 C-2.84826645 3.53199953 -1.95216435 1.95216435 0 0 Z " fill="#858A8C" transform="translate(165,356)"/>
<path d="M0 0 C-0.598125 0.268125 -1.19625 0.53625 -1.8125 0.8125 C-3.97224808 1.98493467 -5.35790256 3.19369282 -7 5 C-7.99 4.34 -8.98 3.68 -10 3 C-6.48812804 0.59185923 -4.27343092 -0.36629408 0 0 Z " fill="#C4C8C8" transform="translate(335,335)"/>
<path d="M0 0 C2 1.0625 2 1.0625 4 3 C4.25 6.6875 4.25 6.6875 4 10 C3.67 10 3.34 10 3 10 C3 8.02 3 6.04 3 4 C1.68 3.67 0.36 3.34 -1 3 C-0.67 2.01 -0.34 1.02 0 0 Z " fill="#ABB0B2" transform="translate(146,205)"/>
</svg>
